<?xml version="1.0" encoding="UTF-8" standalone="no"?>
<!DOCTYPE svg PUBLIC "-//W3C//DTD SVG 1.1//EN"
 "http://www.w3.org/Graphics/SVG/1.1/DTD/svg11.dtd">
<!-- Generated by graphviz version 12.2.1 (20241206.2353)
 -->
<!-- Title: packages_Produktionssimulation Pages: 1 -->
<svg width="3516pt" height="908pt"
 viewBox="0.00 0.00 3516.12 908.00" xmlns="http://www.w3.org/2000/svg" xmlns:xlink="http://www.w3.org/1999/xlink">
<g id="graph0" class="graph" transform="scale(1 1) rotate(0) translate(4 904)">
<title>packages_Produktionssimulation</title>
<polygon fill="white" stroke="none" points="-4,4 -4,-904 3512.12,-904 3512.12,4 -4,4"/>
<!-- src -->
<g id="node1" class="node">
<title>src</title>
<polygon fill="none" stroke="black" points="1226,-540 1172,-540 1172,-504 1226,-504 1226,-540"/>
<text text-anchor="middle" x="1199" y="-516.95" font-family="Times New Roman,serif" font-size="14.00">src</text>
</g>
<!-- src.command_line_service -->
<g id="node2" class="node">
<title>src.command_line_service</title>
<polygon fill="none" stroke="black" points="1977.12,-180 1814.88,-180 1814.88,-144 1977.12,-144 1977.12,-180"/>
<text text-anchor="middle" x="1896" y="-156.95" font-family="Times New Roman,serif" font-size="14.00">src.command_line_service</text>
</g>
<!-- src.production.production -->
<g id="node29" class="node">
<title>src.production.production</title>
<polygon fill="none" stroke="black" points="2212.12,-324 2055.88,-324 2055.88,-288 2212.12,-288 2212.12,-324"/>
<text text-anchor="middle" x="2134" y="-300.95" font-family="Times New Roman,serif" font-size="14.00">src.production.production</text>
</g>
<!-- src.command_line_service&#45;&gt;src.production.production -->
<g id="edge1" class="edge">
<title>src.command_line_service&#45;&gt;src.production.production</title>
<path fill="none" stroke="black" d="M1977.39,-178.2C2006.46,-186.24 2038.34,-198.26 2064,-216 2087.38,-232.16 2106.67,-258.46 2119.05,-278.28"/>
<polygon fill="black" stroke="black" points="2124.08,-286.65 2115.07,-280.4 2122.13,-283.41 2118.93,-278.08 2118.93,-278.08 2118.93,-278.08 2122.13,-283.41 2122.78,-275.76 2124.08,-286.65"/>
</g>
<!-- src.production.production_visualisation -->
<g id="node30" class="node">
<title>src.production.production_visualisation</title>
<polygon fill="none" stroke="black" points="1983.62,-252 1752.38,-252 1752.38,-216 1983.62,-216 1983.62,-252"/>
<text text-anchor="middle" x="1868" y="-228.95" font-family="Times New Roman,serif" font-size="14.00">src.production.production_visualisation</text>
</g>
<!-- src.command_line_service&#45;&gt;src.production.production_visualisation -->
<g id="edge2" class="edge">
<title>src.command_line_service&#45;&gt;src.production.production_visualisation</title>
<path fill="none" stroke="black" d="M1889.08,-180.3C1886.03,-187.93 1882.37,-197.08 1878.96,-205.6"/>
<polygon fill="black" stroke="black" points="1875.29,-214.76 1874.83,-203.81 1876.7,-211.25 1879.01,-205.48 1879.01,-205.48 1879.01,-205.48 1876.7,-211.25 1883.19,-207.15 1875.29,-214.76"/>
</g>
<!-- src.constant -->
<g id="node3" class="node">
<title>src.constant</title>
<polygon fill="none" stroke="black" points="2266.25,-36 2185.75,-36 2185.75,0 2266.25,0 2266.25,-36"/>
<text text-anchor="middle" x="2226" y="-12.95" font-family="Times New Roman,serif" font-size="14.00">src.constant</text>
</g>
<!-- src.constant.constant -->
<g id="node4" class="node">
<title>src.constant.constant</title>
<polygon fill="none" stroke="black" points="444.62,-900 315.38,-900 315.38,-864 444.62,-864 444.62,-900"/>
<text text-anchor="middle" x="380" y="-876.95" font-family="Times New Roman,serif" font-size="14.00">src.constant.constant</text>
</g>
<!-- src.entity -->
<g id="node5" class="node">
<title>src.entity</title>
<polygon fill="none" stroke="black" points="2350.12,-36 2283.88,-36 2283.88,0 2350.12,0 2350.12,-36"/>
<text text-anchor="middle" x="2317" y="-12.95" font-family="Times New Roman,serif" font-size="14.00">src.entity</text>
</g>
<!-- src.entity.entity_working_status -->
<g id="node6" class="node">
<title>src.entity.entity_working_status</title>
<polygon fill="none" stroke="black" points="2056.62,-540 1867.38,-540 1867.38,-504 2056.62,-504 2056.62,-540"/>
<text text-anchor="middle" x="1962" y="-516.95" font-family="Times New Roman,serif" font-size="14.00">src.entity.entity_working_status</text>
</g>
<!-- src.entity.machine -->
<g id="node7" class="node">
<title>src.entity.machine</title>
<polygon fill="none" stroke="black" points="1201.88,-612 1086.12,-612 1086.12,-576 1201.88,-576 1201.88,-612"/>
<text text-anchor="middle" x="1144" y="-588.95" font-family="Times New Roman,serif" font-size="14.00">src.entity.machine</text>
</g>
<!-- src.entity.entity_working_status&#45;&gt;src.entity.machine -->
<g id="edge3" class="edge">
<title>src.entity.entity_working_status&#45;&gt;src.entity.machine</title>
<path fill="none" stroke="black" d="M1866.97,-531.13C1700.38,-545.39 1359.47,-574.56 1213.18,-587.08"/>
<polygon fill="black" stroke="black" points="1203.37,-587.92 1212.95,-582.58 1207.14,-587.6 1213.33,-587.07 1213.33,-587.07 1213.33,-587.07 1207.14,-587.6 1213.71,-591.55 1203.37,-587.92"/>
</g>
<!-- src.production.base.coordinates -->
<g id="node28" class="node">
<title>src.production.base.coordinates</title>
<polygon fill="none" stroke="black" points="1911.88,-900 1724.12,-900 1724.12,-864 1911.88,-864 1911.88,-900"/>
<text text-anchor="middle" x="1818" y="-876.95" font-family="Times New Roman,serif" font-size="14.00">src.production.base.coordinates</text>
</g>
<!-- src.entity.entity_working_status&#45;&gt;src.production.base.coordinates -->
<g id="edge4" class="edge">
<title>src.entity.entity_working_status&#45;&gt;src.production.base.coordinates</title>
<path fill="none" stroke="black" d="M1953.3,-540.44C1941,-566.75 1920,-618.47 1920,-665 1920,-665 1920,-665 1920,-739 1920,-787.48 1880.29,-830.75 1850.42,-856.43"/>
<polygon fill="black" stroke="black" points="1842.85,-862.73 1847.66,-852.88 1845.76,-860.31 1850.54,-856.33 1850.54,-856.33 1850.54,-856.33 1845.76,-860.31 1853.42,-859.79 1842.85,-862.73"/>
</g>
<!-- src.entity.machine&#45;&gt;src.constant.constant -->
<g id="edge5" class="edge">
<title>src.entity.machine&#45;&gt;src.constant.constant</title>
<path fill="none" stroke="black" d="M1137.07,-612.39C1118.14,-657.31 1060.79,-777.28 970,-828 883.79,-876.16 594.88,-881.89 455.92,-881.75"/>
<polygon fill="black" stroke="black" points="446.19,-881.73 456.2,-877.25 449.97,-881.73 456.19,-881.75 456.19,-881.75 456.19,-881.75 449.97,-881.73 456.18,-886.25 446.19,-881.73"/>
</g>
<!-- src.entity.machine_storage -->
<g id="node8" class="node">
<title>src.entity.machine_storage</title>
<polygon fill="none" stroke="black" points="889.75,-684 728.25,-684 728.25,-648 889.75,-648 889.75,-684"/>
<text text-anchor="middle" x="809" y="-660.95" font-family="Times New Roman,serif" font-size="14.00">src.entity.machine_storage</text>
</g>
<!-- src.entity.machine&#45;&gt;src.entity.machine_storage -->
<g id="edge6" class="edge">
<title>src.entity.machine&#45;&gt;src.entity.machine_storage</title>
<path fill="none" stroke="black" d="M1085.88,-608.9C1081.19,-609.97 1076.52,-611.01 1072,-612 1015.3,-624.4 951.49,-637.29 900.92,-647.25"/>
<polygon fill="black" stroke="black" points="891.21,-649.16 900.15,-642.81 894.92,-648.43 901.02,-647.23 901.02,-647.23 901.02,-647.23 894.92,-648.43 901.89,-651.64 891.21,-649.16"/>
</g>
<!-- src.gruppe_eins.order -->
<g id="node14" class="node">
<title>src.gruppe_eins.order</title>
<polygon fill="none" stroke="black" points="671.88,-684 538.12,-684 538.12,-648 671.88,-648 671.88,-684"/>
<text text-anchor="middle" x="605" y="-660.95" font-family="Times New Roman,serif" font-size="14.00">src.gruppe_eins.order</text>
</g>
<!-- src.entity.machine&#45;&gt;src.gruppe_eins.order -->
<g id="edge7" class="edge">
<title>src.entity.machine&#45;&gt;src.gruppe_eins.order</title>
<path fill="none" stroke="black" d="M1085.85,-601.8C1003.95,-611.49 849.95,-630.07 719,-648 707.39,-649.59 695.12,-651.34 683.11,-653.1"/>
<polygon fill="black" stroke="black" points="673.38,-654.53 682.62,-648.62 677.12,-653.98 683.27,-653.07 683.27,-653.07 683.27,-653.07 677.12,-653.98 683.93,-657.53 673.38,-654.53"/>
</g>
<!-- src.gruppe_eins.product -->
<g id="node15" class="node">
<title>src.gruppe_eins.product</title>
<polygon fill="none" stroke="black" points="678.25,-756 531.75,-756 531.75,-720 678.25,-720 678.25,-756"/>
<text text-anchor="middle" x="605" y="-732.95" font-family="Times New Roman,serif" font-size="14.00">src.gruppe_eins.product</text>
</g>
<!-- src.entity.machine&#45;&gt;src.gruppe_eins.product -->
<g id="edge8" class="edge">
<title>src.entity.machine&#45;&gt;src.gruppe_eins.product</title>
<path fill="none" stroke="black" d="M1096.24,-612.46C1026.37,-638 903.98,-682.66 899,-684 829.35,-702.78 748.59,-716.8 689.36,-725.69"/>
<polygon fill="black" stroke="black" points="679.77,-727.11 689,-721.19 683.51,-726.55 689.66,-725.64 689.66,-725.64 689.66,-725.64 683.51,-726.55 690.32,-730.09 679.77,-727.11"/>
</g>
<!-- src.gruppe_eins.production_material -->
<g id="node16" class="node">
<title>src.gruppe_eins.production_material</title>
<polygon fill="none" stroke="black" points="623.75,-828 408.25,-828 408.25,-792 623.75,-792 623.75,-828"/>
<text text-anchor="middle" x="516" y="-804.95" font-family="Times New Roman,serif" font-size="14.00">src.gruppe_eins.production_material</text>
</g>
<!-- src.entity.machine&#45;&gt;src.gruppe_eins.production_material -->
<g id="edge9" class="edge">
<title>src.entity.machine&#45;&gt;src.gruppe_eins.production_material</title>
<path fill="none" stroke="black" d="M1112.7,-612.36C1076.86,-631.74 1015.98,-663.1 961,-684 840.45,-729.83 695.87,-767.38 604.95,-788.99"/>
<polygon fill="black" stroke="black" points="595.32,-791.26 604.02,-784.58 599,-790.39 605.05,-788.96 605.05,-788.96 605.05,-788.96 599,-790.39 606.08,-793.34 595.32,-791.26"/>
</g>
<!-- src.entity.machine&#45;&gt;src.production.base.coordinates -->
<g id="edge10" class="edge">
<title>src.entity.machine&#45;&gt;src.production.base.coordinates</title>
<path fill="none" stroke="black" d="M1161.46,-612.35C1207.2,-656.67 1336.14,-774.28 1468,-828 1546.36,-859.92 1641.67,-872.84 1713.03,-877.96"/>
<polygon fill="black" stroke="black" points="1722.61,-878.61 1712.33,-882.42 1718.84,-878.35 1712.64,-877.93 1712.64,-877.93 1712.64,-877.93 1718.84,-878.35 1712.94,-873.44 1722.61,-878.61"/>
</g>
<!-- src.entity.machine_storage&#45;&gt;src.gruppe_eins.product -->
<g id="edge11" class="edge">
<title>src.entity.machine_storage&#45;&gt;src.gruppe_eins.product</title>
<path fill="none" stroke="black" d="M758.05,-684.48C730.2,-694.04 695.5,-705.95 666.19,-716"/>
<polygon fill="black" stroke="black" points="656.81,-719.22 664.81,-711.72 660.38,-718 666.27,-715.98 666.27,-715.98 666.27,-715.98 660.38,-718 667.73,-720.23 656.81,-719.22"/>
</g>
<!-- src.entity.sink -->
<g id="node9" class="node">
<title>src.entity.sink</title>
<polygon fill="none" stroke="black" points="1967.88,-468 1876.12,-468 1876.12,-432 1967.88,-432 1967.88,-468"/>
<text text-anchor="middle" x="1922" y="-444.95" font-family="Times New Roman,serif" font-size="14.00">src.entity.sink</text>
</g>
<!-- src.entity.source -->
<g id="node10" class="node">
<title>src.entity.source</title>
<polygon fill="none" stroke="black" points="2296.25,-468 2191.75,-468 2191.75,-432 2296.25,-432 2296.25,-468"/>
<text text-anchor="middle" x="2244" y="-444.95" font-family="Times New Roman,serif" font-size="14.00">src.entity.source</text>
</g>
<!-- src.entity.transport_robot -->
<g id="node11" class="node">
<title>src.entity.transport_robot</title>
<polygon fill="none" stroke="black" points="1624.25,-468 1471.75,-468 1471.75,-432 1624.25,-432 1624.25,-468"/>
<text text-anchor="middle" x="1548" y="-444.95" font-family="Times New Roman,serif" font-size="14.00">src.entity.transport_robot</text>
</g>
<!-- src.entity.transport_robot&#45;&gt;src.gruppe_eins.product -->
<g id="edge12" class="edge">
<title>src.entity.transport_robot&#45;&gt;src.gruppe_eins.product</title>
<path fill="none" stroke="black" d="M1516.25,-468.36C1457.38,-500.04 1326.77,-568.02 1211,-612 1102.91,-653.06 1073.99,-659.43 961,-684 868.95,-704.02 761.85,-718.84 689.35,-727.64"/>
<polygon fill="black" stroke="black" points="679.68,-728.8 689.07,-723.14 683.43,-728.35 689.61,-727.61 689.61,-727.61 689.61,-727.61 683.43,-728.35 690.14,-732.08 679.68,-728.8"/>
</g>
<!-- src.entity.transport_robot&#45;&gt;src.production.base.coordinates -->
<g id="edge13" class="edge">
<title>src.entity.transport_robot&#45;&gt;src.production.base.coordinates</title>
<path fill="none" stroke="black" d="M1573.12,-468.48C1604.47,-492.57 1654,-539.16 1654,-593 1654,-593 1654,-593 1654,-739 1654,-797.07 1713.49,-836.7 1760.81,-859.04"/>
<polygon fill="black" stroke="black" points="1769.9,-863.17 1758.93,-863.13 1766.45,-861.61 1760.79,-859.03 1760.79,-859.03 1760.79,-859.03 1766.45,-861.61 1762.66,-854.93 1769.9,-863.17"/>
</g>
<!-- src.entity.working_robot -->
<g id="node12" class="node">
<title>src.entity.working_robot</title>
<polygon fill="none" stroke="black" points="2135.75,-468 1986.25,-468 1986.25,-432 2135.75,-432 2135.75,-468"/>
<text text-anchor="middle" x="2061" y="-444.95" font-family="Times New Roman,serif" font-size="14.00">src.entity.working_robot</text>
</g>
<!-- src.entity.working_robot&#45;&gt;src.entity.entity_working_status -->
<g id="edge14" class="edge">
<title>src.entity.working_robot&#45;&gt;src.entity.entity_working_status</title>
<path fill="none" stroke="black" d="M2036.27,-468.48C2023.9,-477.24 2008.73,-487.96 1995.34,-497.42"/>
<polygon fill="black" stroke="black" points="1987.41,-503.04 1992.97,-493.59 1990.49,-500.85 1995.57,-497.26 1995.57,-497.26 1995.57,-497.26 1990.49,-500.85 1998.17,-500.94 1987.41,-503.04"/>
</g>
<!-- src.entity.working_robot&#45;&gt;src.production.base.coordinates -->
<g id="edge15" class="edge">
<title>src.entity.working_robot&#45;&gt;src.production.base.coordinates</title>
<path fill="none" stroke="black" d="M2065.86,-468.33C2072.87,-494.92 2085,-547.5 2085,-593 2085,-593 2085,-593 2085,-739 2085,-815.81 1997.79,-851.21 1923.06,-867.44"/>
<polygon fill="black" stroke="black" points="1913.33,-869.45 1922.21,-863.02 1917.03,-868.68 1923.12,-867.42 1923.12,-867.42 1923.12,-867.42 1917.03,-868.68 1924.03,-871.83 1913.33,-869.45"/>
</g>
<!-- src.gruppe_eins -->
<g id="node13" class="node">
<title>src.gruppe_eins</title>
<polygon fill="none" stroke="black" points="2469.75,-36 2368.25,-36 2368.25,0 2469.75,0 2469.75,-36"/>
<text text-anchor="middle" x="2419" y="-12.95" font-family="Times New Roman,serif" font-size="14.00">src.gruppe_eins</text>
</g>
<!-- src.gruppe_eins.order&#45;&gt;src.constant.constant -->
<g id="edge16" class="edge">
<title>src.gruppe_eins.order&#45;&gt;src.constant.constant</title>
<path fill="none" stroke="black" d="M537.86,-683.75C484.13,-701.08 412.28,-734 378,-792 367.26,-810.18 368.55,-834.31 372.09,-852.86"/>
<polygon fill="black" stroke="black" points="374.24,-862.39 367.65,-853.62 373.41,-858.7 372.04,-852.63 372.04,-852.63 372.04,-852.63 373.41,-858.7 376.44,-851.65 374.24,-862.39"/>
</g>
<!-- src.gruppe_eins.order&#45;&gt;src.gruppe_eins.product -->
<g id="edge17" class="edge">
<title>src.gruppe_eins.order&#45;&gt;src.gruppe_eins.product</title>
<path fill="none" stroke="black" d="M605,-684.3C605,-691.68 605,-700.48 605,-708.75"/>
<polygon fill="black" stroke="black" points="605,-718.68 600.5,-708.68 605,-714.9 605,-708.68 605,-708.68 605,-708.68 605,-714.9 609.5,-708.68 605,-718.68"/>
</g>
<!-- src.gruppe_eins.product&#45;&gt;src.constant.constant -->
<g id="edge18" class="edge">
<title>src.gruppe_eins.product&#45;&gt;src.constant.constant</title>
<path fill="none" stroke="black" d="M531.51,-749.59C480.07,-758.49 417.37,-772.85 399,-792 383.62,-808.03 379.4,-833.3 378.73,-852.83"/>
<polygon fill="black" stroke="black" points="378.69,-862.61 374.23,-852.59 378.71,-858.83 378.73,-852.61 378.73,-852.61 378.73,-852.61 378.71,-858.83 383.23,-852.62 378.69,-862.61"/>
</g>
<!-- src.gruppe_eins.product&#45;&gt;src.gruppe_eins.production_material -->
<g id="edge19" class="edge">
<title>src.gruppe_eins.product&#45;&gt;src.gruppe_eins.production_material</title>
<path fill="none" stroke="black" d="M583,-756.3C572.09,-764.89 558.73,-775.39 546.82,-784.76"/>
<polygon fill="black" stroke="black" points="539.01,-790.9 544.09,-781.18 541.99,-788.56 546.87,-784.72 546.87,-784.72 546.87,-784.72 541.99,-788.56 549.66,-788.25 539.01,-790.9"/>
</g>
<!-- src.gruppe_eins.product&#45;&gt;src.production.base.coordinates -->
<g id="edge20" class="edge">
<title>src.gruppe_eins.product&#45;&gt;src.production.base.coordinates</title>
<path fill="none" stroke="black" d="M678.54,-751.52C790.73,-770.28 1011.46,-805.84 1200,-828 1379.73,-849.13 1589.81,-865.36 1712.94,-874.01"/>
<polygon fill="black" stroke="black" points="1722.63,-874.69 1712.34,-878.48 1718.86,-874.43 1712.66,-873.99 1712.66,-873.99 1712.66,-873.99 1718.86,-874.43 1712.97,-869.5 1722.63,-874.69"/>
</g>
<!-- src.gruppe_eins.production_material&#45;&gt;src.constant.constant -->
<g id="edge21" class="edge">
<title>src.gruppe_eins.production_material&#45;&gt;src.constant.constant</title>
<path fill="none" stroke="black" d="M482.03,-828.48C464.29,-837.61 442.39,-848.89 423.43,-858.65"/>
<polygon fill="black" stroke="black" points="414.62,-863.18 421.45,-854.6 417.98,-861.45 423.51,-858.61 423.51,-858.61 423.51,-858.61 417.98,-861.45 425.57,-862.61 414.62,-863.18"/>
</g>
<!-- src.gruppe_eins.production_material&#45;&gt;src.production.base.coordinates -->
<g id="edge22" class="edge">
<title>src.gruppe_eins.production_material&#45;&gt;src.production.base.coordinates</title>
<path fill="none" stroke="black" d="M624.04,-826.6C628.75,-827.11 633.42,-827.58 638,-828 1033.52,-864.36 1506.01,-876.04 1712.6,-879.57"/>
<polygon fill="black" stroke="black" points="1722.51,-879.74 1712.43,-884.07 1718.73,-879.67 1712.51,-879.57 1712.51,-879.57 1712.51,-879.57 1718.73,-879.67 1712.59,-875.07 1722.51,-879.74"/>
</g>
<!-- src.main -->
<g id="node17" class="node">
<title>src.main</title>
<polygon fill="none" stroke="black" points="1829.62,-108 1766.38,-108 1766.38,-72 1829.62,-72 1829.62,-108"/>
<text text-anchor="middle" x="1798" y="-84.95" font-family="Times New Roman,serif" font-size="14.00">src.main</text>
</g>
<!-- src.main&#45;&gt;src.command_line_service -->
<g id="edge23" class="edge">
<title>src.main&#45;&gt;src.command_line_service</title>
<path fill="none" stroke="black" d="M1822.48,-108.48C1834.73,-117.24 1849.74,-127.96 1862.99,-137.42"/>
<polygon fill="black" stroke="black" points="1870.84,-143.03 1860.09,-140.88 1867.77,-140.83 1862.71,-137.22 1862.71,-137.22 1862.71,-137.22 1867.77,-140.83 1865.32,-133.56 1870.84,-143.03"/>
</g>
<!-- src.process_logic -->
<g id="node18" class="node">
<title>src.process_logic</title>
<polygon fill="none" stroke="black" points="2597.88,-36 2488.12,-36 2488.12,0 2597.88,0 2597.88,-36"/>
<text text-anchor="middle" x="2543" y="-12.95" font-family="Times New Roman,serif" font-size="14.00">src.process_logic</text>
</g>
<!-- src.process_logic.manufacturing_plan -->
<g id="node19" class="node">
<title>src.process_logic.manufacturing_plan</title>
<polygon fill="none" stroke="black" points="433.5,-252 210.5,-252 210.5,-216 433.5,-216 433.5,-252"/>
<text text-anchor="middle" x="322" y="-228.95" font-family="Times New Roman,serif" font-size="14.00">src.process_logic.manufacturing_plan</text>
</g>
<!-- src.process_logic.manufacturing_plan&#45;&gt;src.entity.machine -->
<g id="edge24" class="edge">
<title>src.process_logic.manufacturing_plan&#45;&gt;src.entity.machine</title>
<path fill="none" stroke="black" d="M339.86,-252.21C396.29,-305.45 578,-468.21 762,-540 865.89,-580.53 996.3,-590.76 1074.74,-592.96"/>
<polygon fill="black" stroke="black" points="1084.71,-593.2 1074.6,-597.45 1080.93,-593.1 1074.71,-592.96 1074.71,-592.96 1074.71,-592.96 1080.93,-593.1 1074.82,-588.46 1084.71,-593.2"/>
</g>
<!-- src.process_logic.manufacturing_plan&#45;&gt;src.gruppe_eins.order -->
<g id="edge25" class="edge">
<title>src.process_logic.manufacturing_plan&#45;&gt;src.gruppe_eins.order</title>
<path fill="none" stroke="black" d="M295.57,-252.23C239.71,-290.81 118.92,-387.16 171,-468 176.64,-476.76 442.18,-593.73 555.07,-643.18"/>
<polygon fill="black" stroke="black" points="564.06,-647.12 553.1,-647.23 560.6,-645.6 554.9,-643.11 554.9,-643.11 554.9,-643.11 560.6,-645.6 556.71,-638.98 564.06,-647.12"/>
</g>
<!-- src.process_logic.manufacturing_plan&#45;&gt;src.gruppe_eins.production_material -->
<g id="edge26" class="edge">
<title>src.process_logic.manufacturing_plan&#45;&gt;src.gruppe_eins.production_material</title>
<path fill="none" stroke="black" d="M268.28,-252.46C247.6,-260.96 224.72,-272.7 207,-288 143.97,-342.42 135.53,-387.04 155,-468 157.1,-476.73 294.96,-750.42 302,-756 329.05,-777.47 363.62,-790.39 397.05,-798.12"/>
<polygon fill="black" stroke="black" points="406.66,-800.19 395.94,-802.48 402.96,-799.39 396.88,-798.08 396.88,-798.08 396.88,-798.08 402.96,-799.39 397.83,-793.68 406.66,-800.19"/>
</g>
<!-- src.process_logic.manufacturing_plan&#45;&gt;src.production.production -->
<g id="edge27" class="edge">
<title>src.process_logic.manufacturing_plan&#45;&gt;src.production.production</title>
<path fill="none" stroke="black" d="M433.98,-239.33C766.48,-252.17 1743.53,-289.92 2044.63,-301.55"/>
<polygon fill="black" stroke="black" points="2054.26,-301.92 2044.1,-306.03 2050.48,-301.77 2044.27,-301.53 2044.27,-301.53 2044.27,-301.53 2050.48,-301.77 2044.44,-297.04 2054.26,-301.92"/>
</g>
<!-- src.provide_input_data.service_product_information -->
<g id="node35" class="node">
<title>src.provide_input_data.service_product_information</title>
<polygon fill="none" stroke="black" points="481.88,-468 180.12,-468 180.12,-432 481.88,-432 481.88,-468"/>
<text text-anchor="middle" x="331" y="-444.95" font-family="Times New Roman,serif" font-size="14.00">src.provide_input_data.service_product_information</text>
</g>
<!-- src.process_logic.manufacturing_plan&#45;&gt;src.provide_input_data.service_product_information -->
<g id="edge28" class="edge">
<title>src.process_logic.manufacturing_plan&#45;&gt;src.provide_input_data.service_product_information</title>
<path fill="none" stroke="black" d="M322.72,-252.15C324.27,-288.93 327.92,-375.71 329.81,-420.76"/>
<polygon fill="black" stroke="black" points="330.22,-430.55 325.31,-420.75 330.07,-426.77 329.8,-420.56 329.8,-420.56 329.8,-420.56 330.07,-426.77 334.3,-420.37 330.22,-430.55"/>
</g>
<!-- src.process_logic.monitoring -->
<g id="node20" class="node">
<title>src.process_logic.monitoring</title>
<polygon fill="none" stroke="black" points="2790.12,-36 2615.88,-36 2615.88,0 2790.12,0 2790.12,-36"/>
<text text-anchor="middle" x="2703" y="-12.95" font-family="Times New Roman,serif" font-size="14.00">src.process_logic.monitoring</text>
</g>
<!-- src.process_logic.path_finding -->
<g id="node21" class="node">
<title>src.process_logic.path_finding</title>
<polygon fill="none" stroke="black" points="2215.25,-180 2032.75,-180 2032.75,-144 2215.25,-144 2215.25,-180"/>
<text text-anchor="middle" x="2124" y="-156.95" font-family="Times New Roman,serif" font-size="14.00">src.process_logic.path_finding</text>
</g>
<!-- src.process_logic.path_finding&#45;&gt;src.entity.machine -->
<g id="edge29" class="edge">
<title>src.process_logic.path_finding&#45;&gt;src.entity.machine</title>
<path fill="none" stroke="black" d="M2032.33,-174.36C2016.87,-176.26 2000.98,-178.19 1986,-180 1782.51,-204.53 1206.18,-134.82 1070,-288 1059.37,-299.96 1067.24,-308.24 1070,-324 1075.87,-357.51 1080.39,-365.77 1096,-396 1104.94,-413.31 1113.88,-413.87 1121,-432 1138.38,-476.23 1142.85,-531.91 1143.87,-564.85"/>
<polygon fill="black" stroke="black" points="1144.08,-574.68 1139.37,-564.78 1144,-570.9 1143.87,-564.68 1143.87,-564.68 1143.87,-564.68 1144,-570.9 1148.37,-564.58 1144.08,-574.68"/>
</g>
<!-- src.process_logic.path_finding&#45;&gt;src.entity.transport_robot -->
<g id="edge30" class="edge">
<title>src.process_logic.path_finding&#45;&gt;src.entity.transport_robot</title>
<path fill="none" stroke="black" d="M2103.61,-180.32C2078.96,-200.41 2035.48,-233.16 1993,-252 1806.96,-334.51 1673.8,-200.02 1548,-360 1534.73,-376.88 1535.86,-401.65 1539.68,-420.78"/>
<polygon fill="black" stroke="black" points="1541.94,-430.38 1535.26,-421.68 1541.07,-426.7 1539.64,-420.64 1539.64,-420.64 1539.64,-420.64 1541.07,-426.7 1544.02,-419.61 1541.94,-430.38"/>
</g>
<!-- src.process_logic.path_finding&#45;&gt;src.entity.working_robot -->
<g id="edge31" class="edge">
<title>src.process_logic.path_finding&#45;&gt;src.entity.working_robot</title>
<path fill="none" stroke="black" d="M2182.81,-180.38C2291.73,-215.4 2506.48,-299.41 2423,-396 2421.87,-397.31 2253.94,-421.48 2147.23,-436.72"/>
<polygon fill="black" stroke="black" points="2137.35,-438.13 2146.61,-432.27 2141.09,-437.6 2147.25,-436.72 2147.25,-436.72 2147.25,-436.72 2141.09,-437.6 2147.88,-441.17 2137.35,-438.13"/>
</g>
<!-- src.production.base.cell -->
<g id="node27" class="node">
<title>src.production.base.cell</title>
<polygon fill="none" stroke="black" points="2413.5,-396 2268.5,-396 2268.5,-360 2413.5,-360 2413.5,-396"/>
<text text-anchor="middle" x="2341" y="-372.95" font-family="Times New Roman,serif" font-size="14.00">src.production.base.cell</text>
</g>
<!-- src.process_logic.path_finding&#45;&gt;src.production.base.cell -->
<g id="edge32" class="edge">
<title>src.process_logic.path_finding&#45;&gt;src.production.base.cell</title>
<path fill="none" stroke="black" d="M2155.03,-180.45C2191.34,-202.05 2251.62,-241.7 2292,-288 2307.99,-306.34 2320.97,-330.75 2329.55,-349.37"/>
<polygon fill="black" stroke="black" points="2333.58,-358.46 2325.41,-351.14 2332.05,-355 2329.53,-349.32 2329.53,-349.32 2329.53,-349.32 2332.05,-355 2333.64,-347.49 2333.58,-358.46"/>
</g>
<!-- src.process_logic.path_finding&#45;&gt;src.production.base.coordinates -->
<g id="edge33" class="edge">
<title>src.process_logic.path_finding&#45;&gt;src.production.base.coordinates</title>
<path fill="none" stroke="black" d="M2215.55,-165.72C2366.72,-171.06 2655.36,-185.19 2690,-216 2720.22,-242.88 2709,-264.55 2709,-305 2709,-305 2709,-305 2709,-739 2709,-817.78 2158.73,-860.44 1923.07,-875.09"/>
<polygon fill="black" stroke="black" points="1913.3,-875.69 1923.01,-870.59 1917.08,-875.46 1923.29,-875.08 1923.29,-875.08 1923.29,-875.08 1917.08,-875.46 1923.56,-879.57 1913.3,-875.69"/>
</g>
<!-- src.process_logic.path_finding&#45;&gt;src.production.production -->
<g id="edge34" class="edge">
<title>src.process_logic.path_finding&#45;&gt;src.production.production</title>
<path fill="none" stroke="black" d="M2149.21,-180.37C2160.26,-189.54 2172.05,-201.83 2178,-216 2184.19,-230.75 2183.43,-236.95 2178,-252 2174.36,-262.08 2167.88,-271.59 2160.99,-279.71"/>
<polygon fill="black" stroke="black" points="2154.3,-287.02 2157.73,-276.61 2156.85,-284.23 2161.05,-279.64 2161.05,-279.64 2161.05,-279.64 2156.85,-284.23 2164.37,-282.68 2154.3,-287.02"/>
</g>
<!-- src.process_logic.path_finding&#45;&gt;src.production.production_visualisation -->
<g id="edge35" class="edge">
<title>src.process_logic.path_finding&#45;&gt;src.production.production_visualisation</title>
<path fill="none" stroke="black" d="M2060.06,-180.48C2024.34,-190.25 1979.65,-202.47 1942.37,-212.66"/>
<polygon fill="black" stroke="black" points="1932.74,-215.3 1941.2,-208.32 1936.39,-214.3 1942.39,-212.66 1942.39,-212.66 1942.39,-212.66 1936.39,-214.3 1943.58,-217 1932.74,-215.3"/>
</g>
<!-- src.process_logic.topologie_manager -->
<g id="node22" class="node">
<title>src.process_logic.topologie_manager</title>
<polygon fill="none" stroke="black" points="3026.25,-36 2807.75,-36 2807.75,0 3026.25,0 3026.25,-36"/>
<text text-anchor="middle" x="2917" y="-12.95" font-family="Times New Roman,serif" font-size="14.00">src.process_logic.topologie_manager</text>
</g>
<!-- src.process_logic.transport_robot_manager -->
<g id="node23" class="node">
<title>src.process_logic.transport_robot_manager</title>
<polygon fill="none" stroke="black" points="444.38,-180 193.62,-180 193.62,-144 444.38,-144 444.38,-180"/>
<text text-anchor="middle" x="319" y="-156.95" font-family="Times New Roman,serif" font-size="14.00">src.process_logic.transport_robot_manager</text>
</g>
<!-- src.process_logic.transport_robot_manager&#45;&gt;src.process_logic.manufacturing_plan -->
<g id="edge36" class="edge">
<title>src.process_logic.transport_robot_manager&#45;&gt;src.process_logic.manufacturing_plan</title>
<path fill="none" stroke="black" d="M319.74,-180.3C320.06,-187.68 320.43,-196.48 320.79,-204.75"/>
<polygon fill="black" stroke="black" points="321.21,-214.68 316.29,-204.88 321.05,-210.9 320.79,-204.69 320.79,-204.69 320.79,-204.69 321.05,-210.9 325.28,-204.49 321.21,-214.68"/>
</g>
<!-- src.process_logic.working_robot_manager -->
<g id="node24" class="node">
<title>src.process_logic.working_robot_manager</title>
<polygon fill="none" stroke="black" points="633.88,-108 386.12,-108 386.12,-72 633.88,-72 633.88,-108"/>
<text text-anchor="middle" x="510" y="-84.95" font-family="Times New Roman,serif" font-size="14.00">src.process_logic.working_robot_manager</text>
</g>
<!-- src.process_logic.working_robot_manager&#45;&gt;src.entity.machine -->
<g id="edge37" class="edge">
<title>src.process_logic.working_robot_manager&#45;&gt;src.entity.machine</title>
<path fill="none" stroke="black" d="M516.8,-108.21C545.81,-178.83 666.92,-447.12 867,-540 933.55,-570.89 1017.09,-583.78 1074.94,-589.15"/>
<polygon fill="black" stroke="black" points="1084.58,-590 1074.22,-593.61 1080.81,-589.67 1074.61,-589.13 1074.61,-589.13 1074.61,-589.13 1080.81,-589.67 1075.01,-584.64 1084.58,-590"/>
</g>
<!-- src.process_logic.working_robot_manager&#45;&gt;src.process_logic.manufacturing_plan -->
<g id="edge38" class="edge">
<title>src.process_logic.working_robot_manager&#45;&gt;src.process_logic.manufacturing_plan</title>
<path fill="none" stroke="black" d="M502.83,-108.34C493.85,-128.14 476.72,-160.31 453,-180 436.92,-193.35 417.03,-203.68 397.66,-211.53"/>
<polygon fill="black" stroke="black" points="388.42,-215.08 396.14,-207.29 391.95,-213.73 397.75,-211.49 397.75,-211.49 397.75,-211.49 391.95,-213.73 399.37,-215.69 388.42,-215.08"/>
</g>
<!-- src.process_logic.working_robot_manager&#45;&gt;src.process_logic.path_finding -->
<g id="edge39" class="edge">
<title>src.process_logic.working_robot_manager&#45;&gt;src.process_logic.path_finding</title>
<path fill="none" stroke="black" d="M634.13,-91.83C888.25,-94.32 1485.96,-104.3 1986,-144 1997.51,-144.91 2009.55,-146.08 2021.5,-147.37"/>
<polygon fill="black" stroke="black" points="2031.23,-148.46 2020.79,-151.82 2027.47,-148.04 2021.29,-147.35 2021.29,-147.35 2021.29,-147.35 2027.47,-148.04 2021.79,-142.88 2031.23,-148.46"/>
</g>
<!-- src.process_logic.working_robot_manager&#45;&gt;src.production.base.coordinates -->
<g id="edge40" class="edge">
<title>src.process_logic.working_robot_manager&#45;&gt;src.production.base.coordinates</title>
<path fill="none" stroke="black" d="M385.89,-100.83C234.93,-116.28 0,-153.15 0,-233 0,-233 0,-233 0,-523 0,-746.21 184.92,-764.8 399,-828 523.62,-864.79 1405.42,-876.93 1712.71,-880.07"/>
<polygon fill="black" stroke="black" points="1722.61,-880.17 1712.57,-884.57 1718.83,-880.13 1712.61,-880.07 1712.61,-880.07 1712.61,-880.07 1718.83,-880.13 1712.66,-875.57 1722.61,-880.17"/>
</g>
<!-- src.production -->
<g id="node25" class="node">
<title>src.production</title>
<polygon fill="none" stroke="black" points="3138,-36 3044,-36 3044,0 3138,0 3138,-36"/>
<text text-anchor="middle" x="3091" y="-12.95" font-family="Times New Roman,serif" font-size="14.00">src.production</text>
</g>
<!-- src.production.base -->
<g id="node26" class="node">
<title>src.production.base</title>
<polygon fill="none" stroke="black" points="3277.88,-36 3156.12,-36 3156.12,0 3277.88,0 3277.88,-36"/>
<text text-anchor="middle" x="3217" y="-12.95" font-family="Times New Roman,serif" font-size="14.00">src.production.base</text>
</g>
<!-- src.production.base.cell&#45;&gt;src.entity.machine -->
<g id="edge41" class="edge">
<title>src.production.base.cell&#45;&gt;src.entity.machine</title>
<path fill="none" stroke="black" d="M2338.56,-396.27C2334.83,-416.31 2325.81,-449.02 2305,-468 2223.04,-542.76 2175.24,-520.68 2066,-540 1902.27,-568.95 1398.64,-585.78 1213.35,-591.13"/>
<polygon fill="black" stroke="black" points="1203.35,-591.41 1213.22,-586.63 1207.13,-591.3 1213.35,-591.13 1213.35,-591.13 1213.35,-591.13 1207.13,-591.3 1213.48,-595.62 1203.35,-591.41"/>
</g>
<!-- src.production.base.cell&#45;&gt;src.entity.sink -->
<g id="edge42" class="edge">
<title>src.production.base.cell&#45;&gt;src.entity.sink</title>
<path fill="none" stroke="black" d="M2268.22,-386.23C2196.76,-394.09 2084.57,-408.46 1979.2,-431.69"/>
<polygon fill="black" stroke="black" points="1969.56,-433.85 1978.34,-427.27 1973.25,-433.02 1979.32,-431.66 1979.32,-431.66 1979.32,-431.66 1973.25,-433.02 1980.3,-436.05 1969.56,-433.85"/>
</g>
<!-- src.production.base.cell&#45;&gt;src.entity.source -->
<g id="edge43" class="edge">
<title>src.production.base.cell&#45;&gt;src.entity.source</title>
<path fill="none" stroke="black" d="M2317.02,-396.3C2304.9,-405.05 2290,-415.81 2276.83,-425.31"/>
<polygon fill="black" stroke="black" points="2269.03,-430.94 2274.5,-421.44 2272.09,-428.73 2277.13,-425.09 2277.13,-425.09 2277.13,-425.09 2272.09,-428.73 2279.77,-428.74 2269.03,-430.94"/>
</g>
<!-- src.production.base.cell&#45;&gt;src.entity.transport_robot -->
<g id="edge44" class="edge">
<title>src.production.base.cell&#45;&gt;src.entity.transport_robot</title>
<path fill="none" stroke="black" d="M2268.17,-385.43C2121.97,-398.33 1793.29,-427.35 1635.62,-441.27"/>
<polygon fill="black" stroke="black" points="1625.79,-442.13 1635.35,-436.77 1629.55,-441.8 1635.75,-441.25 1635.75,-441.25 1635.75,-441.25 1629.55,-441.8 1636.14,-445.74 1625.79,-442.13"/>
</g>
<!-- src.production.base.cell&#45;&gt;src.entity.working_robot -->
<g id="edge45" class="edge">
<title>src.production.base.cell&#45;&gt;src.entity.working_robot</title>
<path fill="none" stroke="black" d="M2271.07,-396.48C2231.66,-406.33 2182.28,-418.68 2141.3,-428.93"/>
<polygon fill="black" stroke="black" points="2131.71,-431.32 2140.32,-424.53 2135.38,-430.41 2141.41,-428.9 2141.41,-428.9 2141.41,-428.9 2135.38,-430.41 2142.5,-433.26 2131.71,-431.32"/>
</g>
<!-- src.production.base.cell&#45;&gt;src.production.base.coordinates -->
<g id="edge46" class="edge">
<title>src.production.base.cell&#45;&gt;src.production.base.coordinates</title>
<path fill="none" stroke="black" d="M2345.25,-396.37C2351.39,-423.01 2362,-475.64 2362,-521 2362,-521 2362,-521 2362,-739 2362,-828.72 2081.46,-862.81 1923.31,-874.9"/>
<polygon fill="black" stroke="black" points="1913.35,-875.64 1922.99,-870.41 1917.12,-875.36 1923.32,-874.9 1923.32,-874.9 1923.32,-874.9 1917.12,-875.36 1923.66,-879.39 1913.35,-875.64"/>
</g>
<!-- src.production.production&#45;&gt;src.entity.machine -->
<g id="edge47" class="edge">
<title>src.production.production&#45;&gt;src.entity.machine</title>
<path fill="none" stroke="black" d="M2084.17,-324.43C2032.78,-342.4 1950.31,-371.21 1879,-396 1786.6,-428.12 1764.93,-440.68 1671,-468 1508.53,-515.26 1314.08,-557.84 1212.89,-578.97"/>
<polygon fill="black" stroke="black" points="1203.4,-580.95 1212.27,-574.5 1207.1,-580.17 1213.19,-578.91 1213.19,-578.91 1213.19,-578.91 1207.1,-580.17 1214.1,-583.31 1203.4,-580.95"/>
</g>
<!-- src.production.production&#45;&gt;src.entity.sink -->
<g id="edge48" class="edge">
<title>src.production.production&#45;&gt;src.entity.sink</title>
<path fill="none" stroke="black" d="M2108,-324.41C2070.07,-349.82 1999.47,-397.11 1957,-425.56"/>
<polygon fill="black" stroke="black" points="1948.89,-430.99 1954.69,-421.69 1952.03,-428.89 1957.2,-425.42 1957.2,-425.42 1957.2,-425.42 1952.03,-428.89 1959.7,-429.16 1948.89,-430.99"/>
</g>
<!-- src.production.production&#45;&gt;src.entity.source -->
<g id="edge49" class="edge">
<title>src.production.production&#45;&gt;src.entity.source</title>
<path fill="none" stroke="black" d="M2148.91,-324.47C2157.55,-334.71 2168.55,-347.96 2178,-360 2194.39,-380.87 2212.28,-405.1 2225.29,-423"/>
<polygon fill="black" stroke="black" points="2230.91,-430.74 2221.4,-425.29 2228.69,-427.68 2225.04,-422.64 2225.04,-422.64 2225.04,-422.64 2228.69,-427.68 2228.68,-420 2230.91,-430.74"/>
</g>
<!-- src.production.production&#45;&gt;src.entity.transport_robot -->
<g id="edge50" class="edge">
<title>src.production.production&#45;&gt;src.entity.transport_robot</title>
<path fill="none" stroke="black" d="M2055.38,-315.11C2027.2,-317.98 1995.18,-321.19 1966,-324 1922.35,-328.21 1606.7,-331.95 1573,-360 1555.47,-374.59 1549.7,-400.41 1548.03,-420.49"/>
<polygon fill="black" stroke="black" points="1547.53,-430.31 1543.55,-420.09 1547.72,-426.53 1548.04,-420.32 1548.04,-420.32 1548.04,-420.32 1547.72,-426.53 1552.54,-420.55 1547.53,-430.31"/>
</g>
<!-- src.production.production&#45;&gt;src.entity.working_robot -->
<g id="edge51" class="edge">
<title>src.production.production&#45;&gt;src.entity.working_robot</title>
<path fill="none" stroke="black" d="M2129.5,-324.41C2124.33,-342.87 2114.87,-372.54 2102,-396 2096.82,-405.44 2090.03,-414.98 2083.47,-423.31"/>
<polygon fill="black" stroke="black" points="2077.3,-430.88 2080.13,-420.28 2079.69,-427.95 2083.62,-423.13 2083.62,-423.13 2083.62,-423.13 2079.69,-427.95 2087.11,-425.97 2077.3,-430.88"/>
</g>
<!-- src.production.production&#45;&gt;src.production.base.cell -->
<g id="edge52" class="edge">
<title>src.production.production&#45;&gt;src.production.base.cell</title>
<path fill="none" stroke="black" d="M2185.7,-324.48C2214.09,-334.08 2249.48,-346.05 2279.3,-356.14"/>
<polygon fill="black" stroke="black" points="2288.45,-359.23 2277.53,-360.29 2284.86,-358.02 2278.97,-356.02 2278.97,-356.02 2278.97,-356.02 2284.86,-358.02 2280.41,-351.76 2288.45,-359.23"/>
</g>
<!-- src.production.production&#45;&gt;src.production.base.coordinates -->
<g id="edge53" class="edge">
<title>src.production.production&#45;&gt;src.production.base.coordinates</title>
<path fill="none" stroke="black" d="M2140.07,-324.24C2148.84,-350.72 2164,-403.14 2164,-449 2164,-449 2164,-449 2164,-739 2164,-798.5 2117.05,-801.07 2064,-828 2020.63,-850.01 1968.47,-862.9 1923.35,-870.44"/>
<polygon fill="black" stroke="black" points="1913.55,-872.01 1922.71,-865.99 1917.28,-871.41 1923.42,-870.43 1923.42,-870.43 1923.42,-870.43 1917.28,-871.41 1924.13,-874.88 1913.55,-872.01"/>
</g>
<!-- src.provide_input_data.service_entity -->
<g id="node33" class="node">
<title>src.provide_input_data.service_entity</title>
<polygon fill="none" stroke="black" points="1336,-396 1116,-396 1116,-360 1336,-360 1336,-396"/>
<text text-anchor="middle" x="1226" y="-372.95" font-family="Times New Roman,serif" font-size="14.00">src.provide_input_data.service_entity</text>
</g>
<!-- src.production.production&#45;&gt;src.provide_input_data.service_entity -->
<g id="edge54" class="edge">
<title>src.production.production&#45;&gt;src.provide_input_data.service_entity</title>
<path fill="none" stroke="black" d="M2055.4,-313.06C1896.58,-325.3 1536.47,-353.06 1347.28,-367.65"/>
<polygon fill="black" stroke="black" points="1337.4,-368.41 1347.02,-363.16 1341.17,-368.12 1347.37,-367.64 1347.37,-367.64 1347.37,-367.64 1341.17,-368.12 1347.71,-372.13 1337.4,-368.41"/>
</g>
<!-- src.provide_input_data.service_order -->
<g id="node34" class="node">
<title>src.provide_input_data.service_order</title>
<polygon fill="none" stroke="black" points="983.88,-396 766.12,-396 766.12,-360 983.88,-360 983.88,-396"/>
<text text-anchor="middle" x="875" y="-372.95" font-family="Times New Roman,serif" font-size="14.00">src.provide_input_data.service_order</text>
</g>
<!-- src.production.production&#45;&gt;src.provide_input_data.service_order -->
<g id="edge55" class="edge">
<title>src.production.production&#45;&gt;src.provide_input_data.service_order</title>
<path fill="none" stroke="black" d="M2055.7,-310.46C1883.89,-318.19 1460.93,-337.9 1107,-360 1070.65,-362.27 1031.13,-365.05 995.17,-367.7"/>
<polygon fill="black" stroke="black" points="985.35,-368.43 994.99,-363.2 989.12,-368.15 995.32,-367.69 995.32,-367.69 995.32,-367.69 989.12,-368.15 995.66,-372.17 985.35,-368.43"/>
</g>
<!-- src.provide_input_data.service_starting_condition -->
<g id="node36" class="node">
<title>src.provide_input_data.service_starting_condition</title>
<polygon fill="none" stroke="black" points="1869.75,-396 1582.25,-396 1582.25,-360 1869.75,-360 1869.75,-396"/>
<text text-anchor="middle" x="1726" y="-372.95" font-family="Times New Roman,serif" font-size="14.00">src.provide_input_data.service_starting_condition</text>
</g>
<!-- src.production.production&#45;&gt;src.provide_input_data.service_starting_condition -->
<g id="edge56" class="edge">
<title>src.production.production&#45;&gt;src.provide_input_data.service_starting_condition</title>
<path fill="none" stroke="black" d="M2055.82,-320.41C1994.32,-330.97 1907.79,-345.81 1838.8,-357.65"/>
<polygon fill="black" stroke="black" points="1829.08,-359.31 1838.17,-353.19 1832.81,-358.68 1838.94,-357.62 1838.94,-357.62 1838.94,-357.62 1832.81,-358.68 1839.7,-362.06 1829.08,-359.31"/>
</g>
<!-- src.production.production_visualisation&#45;&gt;src.constant.constant -->
<g id="edge57" class="edge">
<title>src.production.production_visualisation&#45;&gt;src.constant.constant</title>
<path fill="none" stroke="black" d="M1752.07,-239.33C1596.51,-245.92 1311.79,-260.67 1070,-288 667.91,-333.46 464.4,-153.33 171,-432 141.67,-459.85 152,-480.55 152,-521 152,-521 152,-521 152,-739 152,-785.27 169.47,-799.61 206,-828 234.23,-849.93 271.52,-862.83 304.33,-870.4"/>
<polygon fill="black" stroke="black" points="314.08,-872.51 303.35,-874.79 310.38,-871.71 304.3,-870.39 304.3,-870.39 304.3,-870.39 310.38,-871.71 305.26,-865.99 314.08,-872.51"/>
</g>
<!-- src.production.production_visualisation&#45;&gt;src.entity.machine -->
<g id="edge58" class="edge">
<title>src.production.production_visualisation&#45;&gt;src.entity.machine</title>
<path fill="none" stroke="black" d="M1752.15,-250.02C1544.29,-277.52 1127.61,-335.4 1107,-360 1096.73,-372.27 1098.16,-382.66 1107,-396 1129.66,-430.2 1161.06,-405.06 1192,-432 1220.11,-456.48 1225.09,-468.07 1235,-504 1239.26,-519.42 1242.97,-526.13 1235,-540 1227.74,-552.63 1216.18,-562.53 1203.71,-570.18"/>
<polygon fill="black" stroke="black" points="1195.1,-575.01 1201.63,-566.19 1198.4,-573.16 1203.83,-570.11 1203.83,-570.11 1203.83,-570.11 1198.4,-573.16 1206.03,-574.04 1195.1,-575.01"/>
</g>
<!-- src.production.production_visualisation&#45;&gt;src.entity.sink -->
<g id="edge59" class="edge">
<title>src.production.production_visualisation&#45;&gt;src.entity.sink</title>
<path fill="none" stroke="black" d="M1875.77,-252.5C1880.19,-262.75 1885.69,-276 1890,-288 1901.32,-319.49 1905.21,-327.23 1912,-360 1916.17,-380.14 1918.7,-403.22 1920.17,-420.83"/>
<polygon fill="black" stroke="black" points="1920.92,-430.58 1915.67,-420.95 1920.63,-426.8 1920.15,-420.6 1920.15,-420.6 1920.15,-420.6 1920.63,-426.8 1924.64,-420.26 1920.92,-430.58"/>
</g>
<!-- src.production.production_visualisation&#45;&gt;src.entity.source -->
<g id="edge60" class="edge">
<title>src.production.production_visualisation&#45;&gt;src.entity.source</title>
<path fill="none" stroke="black" d="M1983.93,-245.52C2080.26,-255.38 2204.22,-271.1 2221,-288 2255.65,-322.89 2253.8,-384.82 2249.07,-420.85"/>
<polygon fill="black" stroke="black" points="2247.66,-430.37 2244.68,-419.82 2248.22,-426.63 2249.13,-420.48 2249.13,-420.48 2249.13,-420.48 2248.22,-426.63 2253.58,-421.14 2247.66,-430.37"/>
</g>
<!-- src.production.production_visualisation&#45;&gt;src.entity.transport_robot -->
<g id="edge61" class="edge">
<title>src.production.production_visualisation&#45;&gt;src.entity.transport_robot</title>
<path fill="none" stroke="black" d="M1765.75,-252.49C1658.34,-273.18 1500.06,-311.1 1464,-360 1454.5,-372.88 1456.27,-381.99 1464,-396 1470.77,-408.27 1481.7,-418.09 1493.48,-425.78"/>
<polygon fill="black" stroke="black" points="1502,-430.88 1491.1,-429.61 1498.75,-428.94 1493.41,-425.74 1493.41,-425.74 1493.41,-425.74 1498.75,-428.94 1495.72,-421.88 1502,-430.88"/>
</g>
<!-- src.production.production_visualisation&#45;&gt;src.entity.working_robot -->
<g id="edge62" class="edge">
<title>src.production.production_visualisation&#45;&gt;src.entity.working_robot</title>
<path fill="none" stroke="black" d="M1883.47,-252.15C1917.35,-289.72 1998.25,-379.42 2038.07,-423.57"/>
<polygon fill="black" stroke="black" points="2044.64,-430.86 2034.6,-426.45 2042.11,-428.05 2037.95,-423.44 2037.95,-423.44 2037.95,-423.44 2042.11,-428.05 2041.29,-420.42 2044.64,-430.86"/>
</g>
<!-- src.production.production_visualisation&#45;&gt;src.production.base.coordinates -->
<g id="edge63" class="edge">
<title>src.production.production_visualisation&#45;&gt;src.production.base.coordinates</title>
<path fill="none" stroke="black" d="M1870.01,-252.36C1872.7,-276.47 1877.31,-321.48 1879,-360 1879.7,-375.98 1881.56,-380.21 1879,-396 1876.3,-412.65 1871.12,-415.65 1867,-432 1849.24,-502.43 1839,-520.37 1839,-593 1839,-593 1839,-593 1839,-739 1839,-778.86 1830.8,-824.35 1824.65,-852.87"/>
<polygon fill="black" stroke="black" points="1822.51,-862.44 1820.3,-851.7 1823.34,-858.75 1824.69,-852.68 1824.69,-852.68 1824.69,-852.68 1823.34,-858.75 1829.08,-853.66 1822.51,-862.44"/>
</g>
<!-- src.production.production_visualisation&#45;&gt;src.production.production -->
<g id="edge64" class="edge">
<title>src.production.production_visualisation&#45;&gt;src.production.production</title>
<path fill="none" stroke="black" d="M1934.44,-252.48C1971.71,-262.29 2018.38,-274.57 2057.22,-284.79"/>
<polygon fill="black" stroke="black" points="2066.77,-287.31 2055.96,-289.12 2063.11,-286.35 2057.1,-284.76 2057.1,-284.76 2057.1,-284.76 2063.11,-286.35 2058.25,-280.41 2066.77,-287.31"/>
</g>
<!-- src.production.production_visualisation&#45;&gt;src.provide_input_data.service_starting_condition -->
<g id="edge65" class="edge">
<title>src.production.production_visualisation&#45;&gt;src.provide_input_data.service_starting_condition</title>
<path fill="none" stroke="black" d="M1850.59,-252.41C1825.65,-277.35 1779.62,-323.38 1751.03,-351.97"/>
<polygon fill="black" stroke="black" points="1743.97,-359.03 1747.86,-348.77 1746.65,-356.35 1751.04,-351.96 1751.04,-351.96 1751.04,-351.96 1746.65,-356.35 1754.23,-355.14 1743.97,-359.03"/>
</g>
<!-- src.production.simulation_environment -->
<g id="node31" class="node">
<title>src.production.simulation_environment</title>
<polygon fill="none" stroke="black" points="1111.62,-468 880.38,-468 880.38,-432 1111.62,-432 1111.62,-468"/>
<text text-anchor="middle" x="996" y="-444.95" font-family="Times New Roman,serif" font-size="14.00">src.production.simulation_environment</text>
</g>
<!-- src.provide_input_data -->
<g id="node32" class="node">
<title>src.provide_input_data</title>
<polygon fill="none" stroke="black" points="3436.25,-36 3295.75,-36 3295.75,0 3436.25,0 3436.25,-36"/>
<text text-anchor="middle" x="3366" y="-12.95" font-family="Times New Roman,serif" font-size="14.00">src.provide_input_data</text>
</g>
<!-- src.provide_input_data.service_entity&#45;&gt;src -->
<g id="edge66" class="edge">
<title>src.provide_input_data.service_entity&#45;&gt;src</title>
<path fill="none" stroke="black" d="M1222.69,-396.41C1218.11,-420.5 1209.79,-464.25 1204.33,-492.97"/>
<polygon fill="black" stroke="black" points="1202.48,-502.69 1199.93,-492.03 1203.19,-498.98 1204.35,-492.87 1204.35,-492.87 1204.35,-492.87 1203.19,-498.98 1208.77,-493.71 1202.48,-502.69"/>
</g>
<!-- src.provide_input_data.service_entity&#45;&gt;src.constant.constant -->
<g id="edge67" class="edge">
<title>src.provide_input_data.service_entity&#45;&gt;src.constant.constant</title>
<path fill="none" stroke="black" d="M1284.48,-396.38C1301.43,-404.41 1318.05,-415.86 1328,-432 1353.2,-472.85 1348.6,-496.18 1329,-540 1250.61,-715.27 1183.32,-751.99 1007,-828 909.84,-869.89 600.74,-878.73 456.06,-880.55"/>
<polygon fill="black" stroke="black" points="446.31,-880.67 456.25,-876.05 450.09,-880.62 456.31,-880.55 456.31,-880.55 456.31,-880.55 450.09,-880.62 456.36,-885.05 446.31,-880.67"/>
</g>
<!-- src.provide_input_data.service_entity&#45;&gt;src.entity.entity_working_status -->
<g id="edge68" class="edge">
<title>src.provide_input_data.service_entity&#45;&gt;src.entity.entity_working_status</title>
<path fill="none" stroke="black" d="M1321.33,-396.4C1353.78,-404.54 1389.52,-416.06 1420,-432 1442.09,-443.55 1440.06,-458.26 1463,-468 1531.5,-497.08 1730.81,-510.95 1855.83,-516.96"/>
<polygon fill="black" stroke="black" points="1865.72,-517.43 1855.52,-521.45 1861.95,-517.25 1855.73,-516.96 1855.73,-516.96 1855.73,-516.96 1861.95,-517.25 1855.95,-512.46 1865.72,-517.43"/>
</g>
<!-- src.provide_input_data.service_entity&#45;&gt;src.entity.machine -->
<g id="edge69" class="edge">
<title>src.provide_input_data.service_entity&#45;&gt;src.entity.machine</title>
<path fill="none" stroke="black" d="M1268.03,-396.48C1282.78,-404.9 1297.72,-416.59 1306,-432 1328.71,-474.29 1334.17,-501.14 1306,-540 1284.76,-569.29 1246.86,-582.69 1213.05,-588.7"/>
<polygon fill="black" stroke="black" points="1203.45,-590.21 1212.63,-584.21 1207.18,-589.63 1213.33,-588.66 1213.33,-588.66 1213.33,-588.66 1207.18,-589.63 1214.03,-593.1 1203.45,-590.21"/>
</g>
<!-- src.provide_input_data.service_entity&#45;&gt;src.entity.machine_storage -->
<g id="edge70" class="edge">
<title>src.provide_input_data.service_entity&#45;&gt;src.entity.machine_storage</title>
<path fill="none" stroke="black" d="M1233.69,-396.28C1246.7,-428.43 1268.52,-497.98 1235,-540 1190.08,-596.3 1146.37,-556.63 1077,-576 1003.96,-596.4 921.34,-624.64 867.38,-643.8"/>
<polygon fill="black" stroke="black" points="858.13,-647.1 866.04,-639.5 861.69,-645.83 867.55,-643.74 867.55,-643.74 867.55,-643.74 861.69,-645.83 869.06,-647.98 858.13,-647.1"/>
</g>
<!-- src.provide_input_data.service_entity&#45;&gt;src.entity.transport_robot -->
<g id="edge71" class="edge">
<title>src.provide_input_data.service_entity&#45;&gt;src.entity.transport_robot</title>
<path fill="none" stroke="black" d="M1306.42,-396.48C1353.36,-406.69 1412.59,-419.56 1460.67,-430.01"/>
<polygon fill="black" stroke="black" points="1470.18,-432.08 1459.45,-434.36 1466.48,-431.28 1460.41,-429.96 1460.41,-429.96 1460.41,-429.96 1466.48,-431.28 1461.36,-425.56 1470.18,-432.08"/>
</g>
<!-- src.provide_input_data.service_entity&#45;&gt;src.entity.working_robot -->
<g id="edge72" class="edge">
<title>src.provide_input_data.service_entity&#45;&gt;src.entity.working_robot</title>
<path fill="none" stroke="black" d="M1336.37,-385.03C1509.36,-394.77 1837.88,-414.5 1974.88,-431.86"/>
<polygon fill="black" stroke="black" points="1984.77,-433.16 1974.27,-436.32 1981.02,-432.67 1974.85,-431.85 1974.85,-431.85 1974.85,-431.85 1981.02,-432.67 1975.44,-427.39 1984.77,-433.16"/>
</g>
<!-- src.provide_input_data.service_entity&#45;&gt;src.production.base.coordinates -->
<g id="edge73" class="edge">
<title>src.provide_input_data.service_entity&#45;&gt;src.production.base.coordinates</title>
<path fill="none" stroke="black" d="M1311.48,-396.49C1336.01,-404.43 1361.62,-415.81 1382,-432 1414.98,-458.2 1482,-550.88 1482,-593 1482,-593 1482,-593 1482,-739 1482,-840.79 1614.44,-870.73 1713.02,-878.93"/>
<polygon fill="black" stroke="black" points="1722.74,-879.67 1712.43,-883.4 1718.97,-879.38 1712.77,-878.91 1712.77,-878.91 1712.77,-878.91 1718.97,-879.38 1713.11,-874.42 1722.74,-879.67"/>
</g>
<!-- src.provide_input_data.service_entity&#45;&gt;src.production.simulation_environment -->
<g id="edge74" class="edge">
<title>src.provide_input_data.service_entity&#45;&gt;src.production.simulation_environment</title>
<path fill="none" stroke="black" d="M1168.55,-396.48C1136.74,-406.17 1097,-418.26 1063.69,-428.4"/>
<polygon fill="black" stroke="black" points="1054.28,-431.26 1062.53,-424.05 1057.89,-430.16 1063.84,-428.35 1063.84,-428.35 1063.84,-428.35 1057.89,-430.16 1065.15,-432.66 1054.28,-431.26"/>
</g>
<!-- src.provide_input_data.service_order&#45;&gt;src -->
<g id="edge75" class="edge">
<title>src.provide_input_data.service_order&#45;&gt;src</title>
<path fill="none" stroke="black" d="M867.94,-396.31C861.14,-416.07 854.16,-448.21 871,-468 907.84,-511.28 1082.32,-519.33 1160.7,-520.75"/>
<polygon fill="black" stroke="black" points="1170.33,-520.89 1160.26,-525.24 1166.54,-520.84 1160.33,-520.74 1160.33,-520.74 1160.33,-520.74 1166.54,-520.84 1160.4,-516.24 1170.33,-520.89"/>
</g>
<!-- src.provide_input_data.service_order&#45;&gt;src.constant.constant -->
<g id="edge76" class="edge">
<title>src.provide_input_data.service_order&#45;&gt;src.constant.constant</title>
<path fill="none" stroke="black" d="M867.52,-396.3C863.53,-406.48 859.03,-419.73 857,-432 854.39,-447.79 855.17,-452.1 857,-468 868.18,-565.16 949.06,-599.98 899,-684 807.52,-837.55 576.2,-872.01 455.66,-879.35"/>
<polygon fill="black" stroke="black" points="445.92,-879.89 455.66,-874.84 449.7,-879.68 455.91,-879.33 455.91,-879.33 455.91,-879.33 449.7,-879.68 456.16,-883.83 445.92,-879.89"/>
</g>
<!-- src.provide_input_data.service_order&#45;&gt;src.gruppe_eins.order -->
<g id="edge77" class="edge">
<title>src.provide_input_data.service_order&#45;&gt;src.gruppe_eins.order</title>
<path fill="none" stroke="black" d="M846.98,-396.29C832.3,-405.96 814.42,-418.71 800,-432 727.03,-499.24 656,-593.48 623.47,-638.73"/>
<polygon fill="black" stroke="black" points="617.83,-646.62 619.98,-635.86 620.03,-643.54 623.64,-638.48 623.64,-638.48 623.64,-638.48 620.03,-643.54 627.31,-641.1 617.83,-646.62"/>
</g>
<!-- src.provide_input_data.service_order&#45;&gt;src.production.simulation_environment -->
<g id="edge78" class="edge">
<title>src.provide_input_data.service_order&#45;&gt;src.production.simulation_environment</title>
<path fill="none" stroke="black" d="M905.22,-396.48C920.79,-405.49 939.95,-416.58 956.66,-426.24"/>
<polygon fill="black" stroke="black" points="965.11,-431.13 954.2,-430.02 961.84,-429.24 956.45,-426.12 956.45,-426.12 956.45,-426.12 961.84,-429.24 958.71,-422.23 965.11,-431.13"/>
</g>
<!-- src.provide_input_data.service_order&#45;&gt;src.provide_input_data.service_product_information -->
<g id="edge79" class="edge">
<title>src.provide_input_data.service_order&#45;&gt;src.provide_input_data.service_product_information</title>
<path fill="none" stroke="black" d="M765.89,-393.04C683.19,-403.68 568.66,-418.42 477.9,-430.1"/>
<polygon fill="black" stroke="black" points="468.16,-431.35 477.51,-425.61 471.91,-430.87 478.08,-430.07 478.08,-430.07 478.08,-430.07 471.91,-430.87 478.65,-434.54 468.16,-431.35"/>
</g>
<!-- src.provide_input_data.service_product_information&#45;&gt;src -->
<g id="edge80" class="edge">
<title>src.provide_input_data.service_product_information&#45;&gt;src</title>
<path fill="none" stroke="black" d="M482.19,-463.19C688.08,-479.8 1044.37,-508.53 1160.91,-517.93"/>
<polygon fill="black" stroke="black" points="1170.53,-518.7 1160.2,-522.39 1166.76,-518.4 1160.56,-517.9 1160.56,-517.9 1160.56,-517.9 1166.76,-518.4 1160.92,-513.41 1170.53,-518.7"/>
</g>
<!-- src.provide_input_data.service_product_information&#45;&gt;src.constant.constant -->
<g id="edge81" class="edge">
<title>src.provide_input_data.service_product_information&#45;&gt;src.constant.constant</title>
<path fill="none" stroke="black" d="M293.95,-468.31C252.18,-490.7 190,-533.94 190,-593 190,-593 190,-593 190,-739 190,-800.61 254.89,-838.71 308.83,-859.73"/>
<polygon fill="black" stroke="black" points="317.96,-863.16 307.01,-863.86 314.42,-861.83 308.6,-859.64 308.6,-859.64 308.6,-859.64 314.42,-861.83 310.18,-855.43 317.96,-863.16"/>
</g>
<!-- src.provide_input_data.service_product_information&#45;&gt;src.gruppe_eins.product -->
<g id="edge82" class="edge">
<title>src.provide_input_data.service_product_information&#45;&gt;src.gruppe_eins.product</title>
<path fill="none" stroke="black" d="M339.42,-468.45C360.48,-510.53 419.27,-618.9 496,-684 510.75,-696.52 528.97,-706.88 546.26,-715.02"/>
<polygon fill="black" stroke="black" points="555.19,-719.06 544.23,-719.04 551.75,-717.5 546.08,-714.94 546.08,-714.94 546.08,-714.94 551.75,-717.5 547.93,-710.84 555.19,-719.06"/>
</g>
<!-- src.provide_input_data.service_product_information&#45;&gt;src.gruppe_eins.production_material -->
<g id="edge83" class="edge">
<title>src.provide_input_data.service_product_information&#45;&gt;src.gruppe_eins.production_material</title>
<path fill="none" stroke="black" d="M325.54,-468.29C317.65,-494.82 304,-547.33 304,-593 304,-593 304,-593 304,-667 304,-707.97 299.2,-726.87 328,-756 346.75,-774.97 371.73,-787.29 397.34,-795.25"/>
<polygon fill="black" stroke="black" points="406.78,-797.96 395.92,-799.52 403.14,-796.91 397.17,-795.19 397.17,-795.19 397.17,-795.19 403.14,-796.91 398.41,-790.87 406.78,-797.96"/>
</g>
<!-- src.provide_input_data.service_product_information&#45;&gt;src.production.base.coordinates -->
<g id="edge84" class="edge">
<title>src.provide_input_data.service_product_information&#45;&gt;src.production.base.coordinates</title>
<path fill="none" stroke="black" d="M333.23,-468.45C336.44,-495.21 342,-548 342,-593 342,-593 342,-593 342,-667 342,-756.64 437.77,-728.21 523,-756 699.31,-813.49 749.81,-806.42 934,-828 1214.07,-860.82 1546.59,-873.82 1712.64,-878.55"/>
<polygon fill="black" stroke="black" points="1722.6,-878.83 1712.48,-883.05 1718.82,-878.72 1712.6,-878.55 1712.6,-878.55 1712.6,-878.55 1718.82,-878.72 1712.73,-874.05 1722.6,-878.83"/>
</g>
<!-- src.provide_input_data.service_starting_condition&#45;&gt;src -->
<g id="edge85" class="edge">
<title>src.provide_input_data.service_starting_condition&#45;&gt;src</title>
<path fill="none" stroke="black" d="M1713.75,-396.14C1697.78,-417.02 1667.74,-451.54 1633,-468 1597.57,-484.78 1336.74,-508.99 1237.33,-517.71"/>
<polygon fill="black" stroke="black" points="1227.52,-518.57 1237.09,-513.22 1231.29,-518.24 1237.48,-517.7 1237.48,-517.7 1237.48,-517.7 1231.29,-518.24 1237.87,-522.18 1227.52,-518.57"/>
</g>
<!-- src.provide_input_data.service_starting_condition&#45;&gt;src.production.base.coordinates -->
<g id="edge86" class="edge">
<title>src.provide_input_data.service_starting_condition&#45;&gt;src.production.base.coordinates</title>
<path fill="none" stroke="black" d="M1741.62,-396.38C1762.8,-421.81 1798,-471.52 1798,-521 1798,-521 1798,-521 1798,-739 1798,-778.82 1805.81,-824.32 1811.67,-852.85"/>
<polygon fill="black" stroke="black" points="1813.7,-862.43 1807.22,-853.58 1812.91,-858.73 1811.62,-852.65 1811.62,-852.65 1811.62,-852.65 1812.91,-858.73 1816.03,-851.71 1813.7,-862.43"/>
</g>
<!-- src.run_parts -->
<g id="node37" class="node">
<title>src.run_parts</title>
<polygon fill="none" stroke="black" points="2167.25,-36 2080.75,-36 2080.75,0 2167.25,0 2167.25,-36"/>
<text text-anchor="middle" x="2124" y="-12.95" font-family="Times New Roman,serif" font-size="14.00">src.run_parts</text>
</g>
<!-- src.run_parts&#45;&gt;src.command_line_service -->
<g id="edge87" class="edge">
<title>src.run_parts&#45;&gt;src.command_line_service</title>
<path fill="none" stroke="black" d="M2101.63,-36.42C2077.12,-55.14 2036.32,-85.28 1999,-108 1981.11,-118.89 1960.73,-129.69 1942.85,-138.68"/>
<polygon fill="black" stroke="black" points="1934.02,-143.06 1940.97,-134.58 1937.4,-141.38 1942.97,-138.61 1942.97,-138.61 1942.97,-138.61 1937.4,-141.38 1944.97,-142.64 1934.02,-143.06"/>
</g>
<!-- src.run_parts&#45;&gt;src.entity.entity_working_status -->
<g id="edge88" class="edge">
<title>src.run_parts&#45;&gt;src.entity.entity_working_status</title>
<path fill="none" stroke="black" d="M2167.5,-33.66C2170.7,-34.52 2173.89,-35.31 2177,-36 2303.61,-64.05 2747,-31.32 2747,-161 2747,-161 2747,-161 2747,-307 2747,-446.1 2282.37,-497.83 2068.03,-514.3"/>
<polygon fill="black" stroke="black" points="2058.3,-515.03 2067.93,-509.79 2062.07,-514.75 2068.27,-514.28 2068.27,-514.28 2068.27,-514.28 2062.07,-514.75 2068.61,-518.77 2058.3,-515.03"/>
</g>
<!-- src.run_parts&#45;&gt;src.entity.transport_robot -->
<g id="edge89" class="edge">
<title>src.run_parts&#45;&gt;src.entity.transport_robot</title>
<path fill="none" stroke="black" d="M2080.47,-21.29C1901.79,-31.24 1234,-74.26 1234,-161 1234,-161 1234,-161 1234,-235 1234,-295.58 1403.08,-363.18 1454,-396 1470.3,-406.51 1488.79,-417.18 1505.03,-426.17"/>
<polygon fill="black" stroke="black" points="1513.74,-430.95 1502.81,-430.09 1510.43,-429.13 1504.97,-426.14 1504.97,-426.14 1504.97,-426.14 1510.43,-429.13 1507.14,-422.2 1513.74,-430.95"/>
</g>
<!-- src.run_parts&#45;&gt;src.entity.working_robot -->
<g id="edge90" class="edge">
<title>src.run_parts&#45;&gt;src.entity.working_robot</title>
<path fill="none" stroke="black" d="M2167.51,-33.62C2170.7,-34.49 2173.89,-35.3 2177,-36 2234.96,-49.13 2401.08,-28.9 2442,-72 2466.85,-98.17 2488.85,-368.91 2465,-396 2423.25,-443.42 2245.62,-423.64 2183,-432 2171.4,-433.55 2159.18,-435.21 2147.13,-436.87"/>
<polygon fill="black" stroke="black" points="2137.36,-438.22 2146.65,-432.4 2141.1,-437.71 2147.26,-436.85 2147.26,-436.85 2147.26,-436.85 2141.1,-437.71 2147.88,-441.31 2137.36,-438.22"/>
</g>
<!-- src.run_parts&#45;&gt;src.process_logic.manufacturing_plan -->
<g id="edge91" class="edge">
<title>src.run_parts&#45;&gt;src.process_logic.manufacturing_plan</title>
<path fill="none" stroke="black" d="M2080.56,-19.47C1827.48,-22.3 548.56,-38.2 377,-72 287.58,-89.62 236.91,-69.09 185,-144 175.89,-157.15 175.95,-166.8 185,-180 194.22,-193.46 207.4,-203.5 221.97,-210.99"/>
<polygon fill="black" stroke="black" points="230.61,-215.04 219.65,-214.88 227.19,-213.44 221.56,-210.8 221.56,-210.8 221.56,-210.8 227.19,-213.44 223.46,-206.73 230.61,-215.04"/>
</g>
<!-- src.run_parts&#45;&gt;src.process_logic.path_finding -->
<g id="edge92" class="edge">
<title>src.run_parts&#45;&gt;src.process_logic.path_finding</title>
<path fill="none" stroke="black" d="M2124,-36.41C2124,-60.5 2124,-104.25 2124,-132.97"/>
<polygon fill="black" stroke="black" points="2124,-142.67 2119.5,-132.67 2124,-138.89 2124,-132.67 2124,-132.67 2124,-132.67 2124,-138.89 2128.5,-132.67 2124,-142.67"/>
</g>
<!-- src.run_parts&#45;&gt;src.process_logic.working_robot_manager -->
<g id="edge93" class="edge">
<title>src.run_parts&#45;&gt;src.process_logic.working_robot_manager</title>
<path fill="none" stroke="black" d="M2080.41,-20.89C1873.66,-29.86 987.67,-68.28 645.54,-83.12"/>
<polygon fill="black" stroke="black" points="635.56,-83.55 645.36,-78.63 639.34,-83.39 645.55,-83.12 645.55,-83.12 645.55,-83.12 639.34,-83.39 645.75,-87.62 635.56,-83.55"/>
</g>
<!-- src.run_parts&#45;&gt;src.production.base.coordinates -->
<g id="edge94" class="edge">
<title>src.run_parts&#45;&gt;src.production.base.coordinates</title>
<path fill="none" stroke="black" d="M2167.75,-33.92C2170.86,-34.7 2173.96,-35.41 2177,-36 2393.99,-78.05 2462.11,-5.84 2673,-72 2746.96,-95.2 2823,-83.48 2823,-161 2823,-161 2823,-161 2823,-739 2823,-764.83 2916.46,-755.63 2670,-828 2532.95,-868.24 2119.24,-877.93 1923.21,-880.26"/>
<polygon fill="black" stroke="black" points="1913.26,-880.38 1923.21,-875.76 1917.04,-880.33 1923.26,-880.26 1923.26,-880.26 1923.26,-880.26 1917.04,-880.33 1923.31,-884.76 1913.26,-880.38"/>
</g>
<!-- src.run_parts&#45;&gt;src.production.production -->
<g id="edge95" class="edge">
<title>src.run_parts&#45;&gt;src.production.production</title>
<path fill="none" stroke="black" d="M2144.55,-36.36C2168.94,-58.45 2208.27,-99.16 2224,-144 2240.49,-191.01 2222.99,-211.48 2194,-252 2186.57,-262.39 2176.74,-272.14 2167.2,-280.38"/>
<polygon fill="black" stroke="black" points="2159.53,-286.73 2164.37,-276.89 2162.45,-284.32 2167.24,-280.35 2167.24,-280.35 2167.24,-280.35 2162.45,-284.32 2170.11,-283.82 2159.53,-286.73"/>
</g>
<!-- src.test -->
<g id="node38" class="node">
<title>src.test</title>
<polygon fill="none" stroke="black" points="3508.12,-36 3453.88,-36 3453.88,0 3508.12,0 3508.12,-36"/>
<text text-anchor="middle" x="3481" y="-12.95" font-family="Times New Roman,serif" font-size="14.00">src.test</text>
</g>
<!-- src.test.test_driving_of_robots -->
<g id="node39" class="node">
<title>src.test.test_driving_of_robots</title>
<polygon fill="none" stroke="black" points="828.5,-180 647.5,-180 647.5,-144 828.5,-144 828.5,-180"/>
<text text-anchor="middle" x="738" y="-156.95" font-family="Times New Roman,serif" font-size="14.00">src.test.test_driving_of_robots</text>
</g>
<!-- src.test.test_driving_of_robots&#45;&gt;src.constant.constant -->
<g id="edge96" class="edge">
<title>src.test.test_driving_of_robots&#45;&gt;src.constant.constant</title>
<path fill="none" stroke="black" d="M647.05,-167.58C516.27,-174.91 281.91,-191.05 201,-216 122.12,-240.32 38,-222.46 38,-305 38,-305 38,-305 38,-739 38,-807.56 101.62,-799.56 164,-828 208.44,-848.26 261.7,-861.44 304.21,-869.59"/>
<polygon fill="black" stroke="black" points="313.86,-871.38 303.2,-873.98 310.14,-870.69 304.02,-869.55 304.02,-869.55 304.02,-869.55 310.14,-870.69 304.85,-865.13 313.86,-871.38"/>
</g>
<!-- src.test.test_driving_of_robots&#45;&gt;src.entity.machine -->
<g id="edge97" class="edge">
<title>src.test.test_driving_of_robots&#45;&gt;src.entity.machine</title>
<path fill="none" stroke="black" d="M734.8,-180.2C728.16,-220.81 716.69,-324.61 757,-396 822.64,-512.23 982.6,-561.92 1075.01,-581.51"/>
<polygon fill="black" stroke="black" points="1084.74,-583.51 1074.04,-585.91 1081.04,-582.75 1074.95,-581.5 1074.95,-581.5 1074.95,-581.5 1081.04,-582.75 1075.85,-577.09 1084.74,-583.51"/>
</g>
<!-- src.test.test_driving_of_robots&#45;&gt;src.entity.machine_storage -->
<g id="edge98" class="edge">
<title>src.test.test_driving_of_robots&#45;&gt;src.entity.machine_storage</title>
<path fill="none" stroke="black" d="M696.06,-180.49C651.07,-202.39 586,-244.51 586,-305 586,-305 586,-305 586,-379 586,-498.48 708.53,-597.97 771.93,-641.46"/>
<polygon fill="black" stroke="black" points="780.2,-647.03 769.39,-645.17 777.06,-644.92 771.91,-641.44 771.91,-641.44 771.91,-641.44 777.06,-644.92 774.42,-637.71 780.2,-647.03"/>
</g>
<!-- src.test.test_driving_of_robots&#45;&gt;src.entity.working_robot -->
<g id="edge99" class="edge">
<title>src.test.test_driving_of_robots&#45;&gt;src.entity.working_robot</title>
<path fill="none" stroke="black" d="M828.95,-163.96C1109.82,-167.3 1947.32,-180.21 1993,-216 2025.52,-241.47 2048.11,-364.59 2056.91,-420.85"/>
<polygon fill="black" stroke="black" points="2058.39,-430.57 2052.44,-421.37 2057.82,-426.83 2056.89,-420.69 2056.89,-420.69 2056.89,-420.69 2057.82,-426.83 2061.33,-420.01 2058.39,-430.57"/>
</g>
<!-- src.test.test_driving_of_robots&#45;&gt;src.gruppe_eins.product -->
<g id="edge100" class="edge">
<title>src.test.test_driving_of_robots&#45;&gt;src.gruppe_eins.product</title>
<path fill="none" stroke="black" d="M657.4,-180.49C636.7,-188.36 616.06,-199.7 601,-216 505.01,-319.91 510,-379.54 510,-521 510,-521 510,-521 510,-595 510,-635.45 506.63,-650.3 529,-684 536.79,-695.74 548.15,-705.65 559.72,-713.61"/>
<polygon fill="black" stroke="black" points="567.95,-718.91 557.11,-717.28 564.78,-716.86 559.55,-713.5 559.55,-713.5 559.55,-713.5 564.78,-716.86 561.98,-709.71 567.95,-718.91"/>
</g>
<!-- src.test.test_driving_of_robots&#45;&gt;src.production.base.cell -->
<g id="edge101" class="edge">
<title>src.test.test_driving_of_robots&#45;&gt;src.production.base.cell</title>
<path fill="none" stroke="black" d="M828.91,-162.7C1087.88,-162.47 1825.91,-166.31 2062,-216 2147.53,-234 2171,-241.48 2245,-288 2272.99,-305.6 2300.17,-331.93 2318.42,-351.4"/>
<polygon fill="black" stroke="black" points="2325.08,-358.64 2315,-354.33 2322.52,-355.85 2318.31,-351.28 2318.31,-351.28 2318.31,-351.28 2322.52,-355.85 2321.62,-348.23 2325.08,-358.64"/>
</g>
<!-- src.test.test_driving_of_robots&#45;&gt;src.production.base.coordinates -->
<g id="edge102" class="edge">
<title>src.test.test_driving_of_robots&#45;&gt;src.production.base.coordinates</title>
<path fill="none" stroke="black" d="M721.51,-180.23C699.16,-205.47 662,-254.95 662,-305 662,-305 662,-305 662,-451 662,-557.61 642.5,-609.75 719,-684 774.03,-737.41 1318.38,-815.23 1394,-828 1502.09,-846.25 1626.67,-861.09 1712.69,-870.38"/>
<polygon fill="black" stroke="black" points="1722.56,-871.44 1712.14,-874.84 1718.8,-871.03 1712.62,-870.37 1712.62,-870.37 1712.62,-870.37 1718.8,-871.03 1713.1,-865.9 1722.56,-871.44"/>
</g>
<!-- src.test.test_driving_of_robots&#45;&gt;src.production.production -->
<g id="edge103" class="edge">
<title>src.test.test_driving_of_robots&#45;&gt;src.production.production</title>
<path fill="none" stroke="black" d="M828.76,-163.4C1103.66,-165.08 1915.14,-173.62 2026,-216 2035.35,-219.57 2077.39,-255.4 2106.17,-280.49"/>
<polygon fill="black" stroke="black" points="2113.35,-286.77 2102.86,-283.57 2110.5,-284.28 2105.82,-280.19 2105.82,-280.19 2105.82,-280.19 2110.5,-284.28 2108.78,-276.8 2113.35,-286.77"/>
</g>
<!-- src.test.test_driving_of_robots&#45;&gt;src.production.production_visualisation -->
<g id="edge104" class="edge">
<title>src.test.test_driving_of_robots&#45;&gt;src.production.production_visualisation</title>
<path fill="none" stroke="black" d="M828.56,-168.61C1029.01,-181.03 1510.61,-210.86 1741.01,-225.13"/>
<polygon fill="black" stroke="black" points="1750.91,-225.75 1740.65,-229.62 1747.14,-225.51 1740.93,-225.13 1740.93,-225.13 1740.93,-225.13 1747.14,-225.51 1741.21,-220.64 1750.91,-225.75"/>
</g>
<!-- src.test.test_integration -->
<g id="node40" class="node">
<title>src.test.test_integration</title>
<polygon fill="none" stroke="black" points="1990,-108 1848,-108 1848,-72 1990,-72 1990,-108"/>
<text text-anchor="middle" x="1919" y="-84.95" font-family="Times New Roman,serif" font-size="14.00">src.test.test_integration</text>
</g>
<!-- src.test.test_integration&#45;&gt;src.command_line_service -->
<g id="edge105" class="edge">
<title>src.test.test_integration&#45;&gt;src.command_line_service</title>
<path fill="none" stroke="black" d="M1913.31,-108.3C1910.84,-115.85 1907.87,-124.88 1905.09,-133.32"/>
<polygon fill="black" stroke="black" points="1902,-142.74 1900.85,-131.83 1903.18,-139.15 1905.12,-133.24 1905.12,-133.24 1905.12,-133.24 1903.18,-139.15 1909.4,-134.64 1902,-142.74"/>
</g>
<!-- src.test.test_path_finding -->
<g id="node41" class="node">
<title>src.test.test_path_finding</title>
<polygon fill="none" stroke="black" points="2433.25,-108 2280.75,-108 2280.75,-72 2433.25,-72 2433.25,-108"/>
<text text-anchor="middle" x="2357" y="-84.95" font-family="Times New Roman,serif" font-size="14.00">src.test.test_path_finding</text>
</g>
<!-- src.test.test_path_finding&#45;&gt;src.entity.working_robot -->
<g id="edge106" class="edge">
<title>src.test.test_path_finding&#45;&gt;src.entity.working_robot</title>
<path fill="none" stroke="black" d="M2365.91,-108.12C2395.3,-165.7 2485.07,-351.21 2446,-396 2407.22,-440.45 2241.43,-423.93 2183,-432 2171.4,-433.6 2159.19,-435.3 2147.15,-436.97"/>
<polygon fill="black" stroke="black" points="2137.37,-438.33 2146.65,-432.49 2141.12,-437.81 2147.27,-436.95 2147.27,-436.95 2147.27,-436.95 2141.12,-437.81 2147.89,-441.41 2137.37,-438.33"/>
</g>
<!-- src.test.test_path_finding&#45;&gt;src.process_logic.path_finding -->
<g id="edge107" class="edge">
<title>src.test.test_path_finding&#45;&gt;src.process_logic.path_finding</title>
<path fill="none" stroke="black" d="M2298.81,-108.48C2266.57,-118.17 2226.32,-130.26 2192.57,-140.4"/>
<polygon fill="black" stroke="black" points="2183.02,-143.27 2191.31,-136.08 2186.64,-142.18 2192.6,-140.39 2192.6,-140.39 2192.6,-140.39 2186.64,-142.18 2193.9,-144.7 2183.02,-143.27"/>
</g>
<!-- src.test.test_path_finding&#45;&gt;src.production.base.cell -->
<g id="edge108" class="edge">
<title>src.test.test_path_finding&#45;&gt;src.production.base.cell</title>
<path fill="none" stroke="black" d="M2356.02,-108.46C2353.34,-156.34 2345.86,-290.05 2342.58,-348.76"/>
<polygon fill="black" stroke="black" points="2342.03,-358.55 2338.1,-348.32 2342.24,-354.78 2342.59,-348.57 2342.59,-348.57 2342.59,-348.57 2342.24,-354.78 2347.08,-348.82 2342.03,-358.55"/>
</g>
<!-- src.test.test_path_finding&#45;&gt;src.production.base.coordinates -->
<g id="edge109" class="edge">
<title>src.test.test_path_finding&#45;&gt;src.production.base.coordinates</title>
<path fill="none" stroke="black" d="M2433.52,-100.43C2556.63,-117.77 2785,-159.8 2785,-233 2785,-233 2785,-233 2785,-739 2785,-852.76 2656.17,-803.85 2545,-828 2429.51,-853.09 2095.56,-869.78 1923.4,-876.97"/>
<polygon fill="black" stroke="black" points="1913.51,-877.38 1923.32,-872.47 1917.29,-877.23 1923.5,-876.97 1923.5,-876.97 1923.5,-876.97 1917.29,-877.23 1923.69,-881.47 1913.51,-877.38"/>
</g>
<!-- src.test.test_path_finding&#45;&gt;src.production.production -->
<g id="edge110" class="edge">
<title>src.test.test_path_finding&#45;&gt;src.production.production</title>
<path fill="none" stroke="black" d="M2350.35,-108.43C2337.19,-140.83 2304.87,-210.78 2257,-252 2241.69,-265.19 2222.6,-275.53 2204.06,-283.44"/>
<polygon fill="black" stroke="black" points="2194.97,-287.12 2202.54,-279.19 2198.47,-285.7 2204.24,-283.36 2204.24,-283.36 2204.24,-283.36 2198.47,-285.7 2205.93,-287.53 2194.97,-287.12"/>
</g>
<!-- src.test.test_path_finding&#45;&gt;src.production.production_visualisation -->
<g id="edge111" class="edge">
<title>src.test.test_path_finding&#45;&gt;src.production.production_visualisation</title>
<path fill="none" stroke="black" d="M2280.51,-97.89C2196.58,-106.37 2067.91,-122.35 2024,-144 2003.13,-154.29 2005.33,-167.05 1986,-180 1967.73,-192.24 1946.17,-202.87 1926.51,-211.33"/>
<polygon fill="black" stroke="black" points="1917.55,-215.09 1925.04,-207.07 1921.04,-213.63 1926.78,-211.22 1926.78,-211.22 1926.78,-211.22 1921.04,-213.63 1928.52,-215.37 1917.55,-215.09"/>
</g>
<!-- src.test.test_production_layout -->
<g id="node42" class="node">
<title>src.test.test_production_layout</title>
<polygon fill="none" stroke="black" points="2681.25,-252 2498.75,-252 2498.75,-216 2681.25,-216 2681.25,-252"/>
<text text-anchor="middle" x="2590" y="-228.95" font-family="Times New Roman,serif" font-size="14.00">src.test.test_production_layout</text>
</g>
<!-- src.test.test_production_layout&#45;&gt;src.entity.source -->
<g id="edge112" class="edge">
<title>src.test.test_production_layout&#45;&gt;src.entity.source</title>
<path fill="none" stroke="black" d="M2586.07,-252.26C2577.2,-289.76 2554.6,-376.83 2532,-396 2498.9,-424.08 2381.85,-438.28 2307.55,-444.62"/>
<polygon fill="black" stroke="black" points="2297.68,-445.44 2307.27,-440.13 2301.44,-445.13 2307.64,-444.61 2307.64,-444.61 2307.64,-444.61 2301.44,-445.13 2308.01,-449.1 2297.68,-445.44"/>
</g>
<!-- src.test.test_production_layout&#45;&gt;src.production.base.coordinates -->
<g id="edge113" class="edge">
<title>src.test.test_production_layout&#45;&gt;src.production.base.coordinates</title>
<path fill="none" stroke="black" d="M2590.81,-252.48C2591.98,-279.28 2594,-332.11 2594,-377 2594,-377 2594,-377 2594,-739 2594,-806.4 2135.16,-854.11 1923.13,-872.56"/>
<polygon fill="black" stroke="black" points="1913.2,-873.41 1922.78,-868.07 1916.97,-873.09 1923.17,-872.55 1923.17,-872.55 1923.17,-872.55 1916.97,-873.09 1923.55,-877.04 1913.2,-873.41"/>
</g>
<!-- src.test.test_production_layout&#45;&gt;src.production.production -->
<g id="edge114" class="edge">
<title>src.test.test_production_layout&#45;&gt;src.production.production</title>
<path fill="none" stroke="black" d="M2498.27,-249.08C2418.16,-261.38 2302.61,-279.12 2223.24,-291.3"/>
<polygon fill="black" stroke="black" points="2213.5,-292.8 2222.7,-286.83 2217.24,-292.22 2223.38,-291.28 2223.38,-291.28 2223.38,-291.28 2217.24,-292.22 2224.06,-295.73 2213.5,-292.8"/>
</g>
<!-- src.test.test_services -->
<g id="node43" class="node">
<title>src.test.test_services</title>
<polygon fill="none" stroke="black" points="1205.5,-324 1078.5,-324 1078.5,-288 1205.5,-288 1205.5,-324"/>
<text text-anchor="middle" x="1142" y="-300.95" font-family="Times New Roman,serif" font-size="14.00">src.test.test_services</text>
</g>
<!-- src.test.test_services&#45;&gt;src.entity.machine -->
<g id="edge115" class="edge">
<title>src.test.test_services&#45;&gt;src.entity.machine</title>
<path fill="none" stroke="black" d="M1108.28,-324.38C1095.04,-333.12 1081.29,-345.07 1074,-360 1066.98,-374.38 1066.92,-381.65 1074,-396 1085.65,-419.59 1107.71,-409.29 1121,-432 1145.24,-473.42 1147.43,-530.8 1146.17,-564.7"/>
<polygon fill="black" stroke="black" points="1145.67,-574.43 1141.69,-564.21 1145.86,-570.65 1146.18,-564.44 1146.18,-564.44 1146.18,-564.44 1145.86,-570.65 1150.67,-564.67 1145.67,-574.43"/>
</g>
<!-- src.test.test_services&#45;&gt;src.entity.transport_robot -->
<g id="edge116" class="edge">
<title>src.test.test_services&#45;&gt;src.entity.transport_robot</title>
<path fill="none" stroke="black" d="M1205.74,-322.15C1260.45,-335.41 1332.44,-353.52 1345,-360 1367.15,-371.43 1366.23,-383.87 1388,-396 1412.04,-409.4 1440.01,-420.1 1465.77,-428.29"/>
<polygon fill="black" stroke="black" points="1475.12,-431.17 1464.24,-432.52 1471.51,-430.05 1465.56,-428.22 1465.56,-428.22 1465.56,-428.22 1471.51,-430.05 1466.89,-423.92 1475.12,-431.17"/>
</g>
<!-- src.test.test_services&#45;&gt;src.entity.working_robot -->
<g id="edge117" class="edge">
<title>src.test.test_services&#45;&gt;src.entity.working_robot</title>
<path fill="none" stroke="black" d="M1205.69,-321.09C1307.56,-343.47 1502.8,-385.66 1573,-396 1747.77,-421.74 1796.66,-406.71 1974.88,-431.8"/>
<polygon fill="black" stroke="black" points="1984.76,-433.21 1974.22,-436.25 1981.02,-432.68 1974.86,-431.79 1974.86,-431.79 1974.86,-431.79 1981.02,-432.68 1975.5,-427.34 1984.76,-433.21"/>
</g>
<!-- src.test.test_services&#45;&gt;src.gruppe_eins.order -->
<g id="edge118" class="edge">
<title>src.test.test_services&#45;&gt;src.gruppe_eins.order</title>
<path fill="none" stroke="black" d="M1078.25,-321.43C1073.44,-322.35 1068.65,-323.22 1064,-324 996.25,-335.33 813.79,-321.37 757,-360 659.34,-426.43 621.56,-574.73 609.66,-636.81"/>
<polygon fill="black" stroke="black" points="607.89,-646.5 605.26,-635.85 608.57,-642.78 609.69,-636.66 609.69,-636.66 609.69,-636.66 608.57,-642.78 614.11,-637.47 607.89,-646.5"/>
</g>
<!-- src.test.test_services&#45;&gt;src.provide_input_data.service_entity -->
<g id="edge119" class="edge">
<title>src.test.test_services&#45;&gt;src.provide_input_data.service_entity</title>
<path fill="none" stroke="black" d="M1162.76,-324.3C1172.96,-332.8 1185.42,-343.19 1196.58,-352.49"/>
<polygon fill="black" stroke="black" points="1204.25,-358.87 1193.68,-355.93 1201.34,-356.45 1196.57,-352.47 1196.57,-352.47 1196.57,-352.47 1201.34,-356.45 1199.45,-349.01 1204.25,-358.87"/>
</g>
<!-- src.test.test_services&#45;&gt;src.provide_input_data.service_order -->
<g id="edge120" class="edge">
<title>src.test.test_services&#45;&gt;src.provide_input_data.service_order</title>
<path fill="none" stroke="black" d="M1078.05,-323.77C1040.31,-333.66 992.3,-346.25 952.43,-356.7"/>
<polygon fill="black" stroke="black" points="942.87,-359.21 951.4,-352.32 946.52,-358.25 952.54,-356.67 952.54,-356.67 952.54,-356.67 946.52,-358.25 953.68,-361.02 942.87,-359.21"/>
</g>
</g>
</svg>
